<?xml version="1.0" encoding="utf-8" ?><svg xmlns="http://www.w3.org/2000/svg" xmlns:xlink="http://www.w3.org/1999/xlink" width="329" height="330" viewBox="0 0 329 330"><path fill="#7D3F1D" transform="scale(1.01077 1.01077)" d="M0 0L288.587 0C288.493 10.2247 288.459 20.4499 288.485 30.675C291.681 30.5469 323.681 30.5147 325 30.9619L325 117.195C323.267 118.093 303.173 117.782 299.592 117.775L262.237 117.697L180.612 117.676L166.299 117.695C166.607 120.439 166.493 124.678 166.497 127.545L203.054 127.503L238.479 127.469C244.005 127.44 250.551 127.573 255.963 127.297C255.905 164.513 255.37 202.473 255.748 239.612C252.73 239.867 247.233 239.69 244.019 239.687L221.376 239.669L182.931 239.615C177.578 239.59 171.597 239.72 166.303 239.544C166.638 242.088 166.502 247.074 166.501 249.807L166.497 268.115L166.585 326L0 326L0 0Z"/><defs><linearGradient id="gradient_0" gradientUnits="userSpaceOnUse" x1="109.79713" y1="81.613617" x2="118.69027" y2="123.95705"><stop offset="0" stop-color="#FEF286"/><stop offset="1" stop-color="#FEFBE2"/></linearGradient></defs><path fill="url(#gradient_0)" transform="scale(1.01077 1.01077)" d="M68.1936 89.1719C72.452 86.2973 77.2271 83.0244 81.7072 80.5554C85.5347 78.4462 91.0135 76.9048 95.2414 75.546C99.6488 74.1295 105.823 71.8431 110.258 70.9037C121.771 68.4651 140.663 68.1543 151.686 71.6088C154.446 72.15 158.251 73.0252 160.535 74.6147C160.399 77.5027 161.136 83.33 160.032 85.4899C164.814 85.4765 169.596 85.4904 174.377 85.5316L171.329 85.8916C174.55 86.3459 177.53 84.9769 179.68 88.3028C182.245 92.2702 186.937 95.9159 190.488 99.1818L203.511 111.234C204.656 112.299 208.502 115.528 209.083 116.37C208.055 118.021 198.571 116.519 196.218 117.433C194.034 117.432 182.128 117.306 180.612 117.676L166.299 117.695C166.607 120.439 166.493 124.678 166.497 127.545L203.054 127.503C202.072 131.916 202.675 133.457 203.321 137.879C203.686 140.468 203.918 143.074 204.016 145.687C204.131 149.219 203.58 153.553 203.731 156.539C201.257 157.301 192.756 156.361 190.03 156.906L189.992 185.003C189.976 193.758 190.37 199.78 189.077 208.478L168.722 208.424C166.198 208.421 160.644 208.277 158.455 208.536L158.399 208.708C158.17 208.753 155.121 210.755 154.561 211.116C148.028 215.312 140.439 215.444 133.17 217.293C132.395 217.491 131.584 217.923 130.775 218.012L130.495 217.378L130.507 212.502C126.244 212.545 121.513 212.19 117.107 212.175C111.127 212.155 104.886 212.48 99.002 212.38C98.9306 202.974 99.4325 193.907 99.354 184.331C98.6797 184.367 97.7982 184.21 97.111 184.117C93.2065 183.788 85.9404 184.063 81.8395 184.07C78.4733 184.076 71.3171 183.918 68.1511 184.212C67.651 182.832 67.9672 160.119 67.9864 156.922L68.025 156.787C67.3714 154.791 67.8282 132.443 68.0123 128.984C67.6291 123.118 68.0903 114.677 67.9887 108.534C67.9288 104.914 67.7983 92.511 68.3291 89.4796L68.1936 89.1719Z"/><defs><linearGradient id="gradient_1" gradientUnits="userSpaceOnUse" x1="159.72285" y1="220.15263" x2="137.4688" y2="167.91335"><stop offset="0" stop-color="#FCEF75"/><stop offset="1" stop-color="#FDFAC8"/></linearGradient></defs><path fill="url(#gradient_1)" transform="scale(1.01077 1.01077)" d="M99.2148 156.707C109.512 156.753 120.228 156.883 130.493 156.693C139.928 156.749 150.271 157.326 159.64 156.967L161.462 157.016C170.985 157.032 180.508 156.995 190.03 156.906L189.992 185.003C189.976 193.758 190.37 199.78 189.077 208.478L168.722 208.424C166.198 208.421 160.644 208.277 158.455 208.536L158.399 208.708C158.17 208.753 155.121 210.755 154.561 211.116C148.028 215.312 140.439 215.444 133.17 217.293C132.395 217.491 131.584 217.923 130.775 218.012L130.495 217.378L130.507 212.502C126.244 212.545 121.513 212.19 117.107 212.175C111.127 212.155 104.886 212.48 99.002 212.38C98.9306 202.974 99.4325 193.907 99.354 184.331C98.6797 184.367 97.7982 184.21 97.111 184.117C97.8821 184.099 98.4335 184.161 99.1153 183.82C99.2324 182.93 99.2522 182.042 99.2629 181.146C99.3601 172.999 99.1517 164.853 99.2148 156.707Z"/><path fill="#FEFEFE" transform="scale(1.01077 1.01077)" d="M130.493 156.693C139.928 156.749 150.271 157.326 159.64 156.967L161.462 157.016L161.598 175.308C161.606 178.026 161.417 181.962 161.607 184.565C155.458 184.334 150.164 184.214 144.026 184.373C141.089 184.45 133.223 184.723 130.739 184.366C130.424 183.873 130.434 183.912 130.348 183.334C129.871 176.226 130.354 163.922 130.493 156.693Z"/><defs><linearGradient id="gradient_2" gradientUnits="userSpaceOnUse" x1="110.55902" y1="186.1008" x2="118.76723" y2="154.35428"><stop offset="0" stop-color="#E6984F"/><stop offset="1" stop-color="#F1BA8D"/></linearGradient></defs><path fill="url(#gradient_2)" transform="scale(1.01077 1.01077)" d="M99.2148 156.707C109.512 156.753 120.228 156.883 130.493 156.693C130.354 163.922 129.871 176.226 130.348 183.334L130.137 184.028C128.52 184.626 108.284 184.063 105.184 184.237C104.042 184.3 100.595 184.073 99.354 184.331C98.6797 184.367 97.7982 184.21 97.111 184.117C97.8821 184.099 98.4335 184.161 99.1153 183.82C99.2324 182.93 99.2522 182.042 99.2629 181.146C99.3601 172.999 99.1517 164.853 99.2148 156.707Z"/><path fill="#CA6D2C" transform="scale(1.01077 1.01077)" d="M130.524 208.485C139.783 208.557 149.26 208.395 158.455 208.536L158.399 208.708C158.17 208.753 155.121 210.755 154.561 211.116C148.028 215.312 140.439 215.444 133.17 217.293C132.395 217.491 131.584 217.923 130.775 218.012L130.495 217.378L130.507 212.502L130.524 208.485Z"/><defs><linearGradient id="gradient_3" gradientUnits="userSpaceOnUse" x1="198.21837" y1="99.893066" x2="136.74106" y2="141.3782"><stop offset="0" stop-color="#CB620D"/><stop offset="1" stop-color="#F7C294"/></linearGradient></defs><path fill="url(#gradient_3)" transform="scale(1.01077 1.01077)" d="M130.596 85.4478C140.279 85.6136 150.321 85.4843 160.032 85.4899C164.814 85.4765 169.596 85.4904 174.377 85.5316L171.329 85.8916C174.55 86.3459 177.53 84.9769 179.68 88.3028C182.245 92.2702 186.937 95.9159 190.488 99.1818L203.511 111.234C204.656 112.299 208.502 115.528 209.083 116.37C208.055 118.021 198.571 116.519 196.218 117.433C194.034 117.432 182.128 117.306 180.612 117.676L166.299 117.695C166.607 120.439 166.493 124.678 166.497 127.545L203.054 127.503C202.072 131.916 202.675 133.457 203.321 137.879C203.686 140.468 203.918 143.074 204.016 145.687C204.131 149.219 203.58 153.553 203.731 156.539C201.257 157.301 192.756 156.361 190.03 156.906C180.508 156.995 170.985 157.032 161.462 157.016L159.64 156.967C150.271 157.326 139.928 156.749 130.493 156.693C130.263 150.627 130.443 143.564 130.454 137.439L130.476 102.127C130.512 101.37 130.634 100.419 130.712 99.6452C130.575 94.9141 130.536 90.1805 130.596 85.4478Z"/><path fill="#F2C9AB" transform="scale(1.01077 1.01077)" d="M130.476 102.127C130.512 101.37 130.634 100.419 130.712 99.6452L130.731 118C130.706 123.153 130.52 127.481 131.024 132.641C131.069 132.664 131.114 132.685 131.157 132.71C133.668 134.111 146.275 151.92 147.154 155.226C147.229 155.511 147.278 155.799 147.315 156.091C148.541 157.385 157.106 156.242 159.64 156.967C150.271 157.326 139.928 156.749 130.493 156.693C130.263 150.627 130.443 143.564 130.454 137.439L130.476 102.127Z"/><path fill="#CA6D2C" transform="scale(1.01077 1.01077)" d="M177.242 131.882L177.577 132.15C177.911 132.992 177.728 133.813 177.64 134.743L177.391 134.566C177.042 133.749 177.195 132.805 177.242 131.882Z"/><defs><linearGradient id="gradient_4" gradientUnits="userSpaceOnUse" x1="67.667068" y1="143.49731" x2="99.094795" y2="142.00212"><stop offset="0" stop-color="#E48D43"/><stop offset="1" stop-color="#EAAB7A"/></linearGradient></defs><path fill="url(#gradient_4)" transform="scale(1.01077 1.01077)" d="M68.0123 128.984L99.0877 128.977C99.2209 138.22 99.2633 147.463 99.2148 156.707C99.1517 164.853 99.3601 172.999 99.2629 181.146C99.2522 182.042 99.2324 182.93 99.1153 183.82C98.4335 184.161 97.8821 184.099 97.111 184.117C93.2065 183.788 85.9404 184.063 81.8395 184.07C78.4733 184.076 71.3171 183.918 68.1511 184.212C67.651 182.832 67.9672 160.119 67.9864 156.922L68.025 156.787C67.3714 154.791 67.8282 132.443 68.0123 128.984Z"/><defs><linearGradient id="gradient_5" gradientUnits="userSpaceOnUse" x1="68.318565" y1="183.32904" x2="98.428932" y2="157.20624"><stop offset="0" stop-color="#FFF3A2"/><stop offset="1" stop-color="#FEFEEC"/></linearGradient></defs><path fill="url(#gradient_5)" transform="scale(1.01077 1.01077)" d="M68.025 156.787C78.3237 156.691 89.0388 156.872 99.2148 156.707C99.1517 164.853 99.3601 172.999 99.2629 181.146C99.2522 182.042 99.2324 182.93 99.1153 183.82C98.4335 184.161 97.8821 184.099 97.111 184.117C93.2065 183.788 85.9404 184.063 81.8395 184.07C78.4733 184.076 71.3171 183.918 68.1511 184.212C67.651 182.832 67.9672 160.119 67.9864 156.922L68.025 156.787Z"/><path fill="#FEFEFE" transform="scale(1.01077 1.01077)" d="M98.9454 102.294C103.982 102.48 109.642 102.368 114.734 102.414C119.51 102.457 125.801 102.58 130.476 102.127L130.454 137.439C130.443 143.564 130.263 150.627 130.493 156.693C120.228 156.883 109.512 156.753 99.2148 156.707C99.2633 147.463 99.2209 138.22 99.0877 128.977C99.179 126.248 99.0407 122.465 99.0356 119.641C99.0601 113.858 99.03 108.076 98.9454 102.294Z"/><path fill="#FDF180" transform="scale(1.01077 1.01077)" d="M68.1936 89.1719C72.452 86.2973 77.2271 83.0244 81.7072 80.5554C85.5347 78.4462 91.0135 76.9048 95.2414 75.546C99.6488 74.1295 105.823 71.8431 110.258 70.9037C121.771 68.4651 140.663 68.1543 151.686 71.6088L151.48 71.898C152.244 72.1078 154.293 72.5544 154.832 72.8254C154.299 72.84 152.959 72.6896 152.661 72.8123C145.571 75.732 137.429 77.1255 130.085 78.7865C114.472 82.3936 98.804 85.7619 83.0875 88.8903C79.4083 89.5909 75.588 90.1026 71.8937 90.766C69.8808 91.1275 70.3832 91.9729 68.6364 92.0438C68.5508 91.1871 68.4484 90.3322 68.3291 89.4796L68.1936 89.1719Z"/><defs><linearGradient id="gradient_6" gradientUnits="userSpaceOnUse" x1="328.13046" y1="81.288841" x2="185.75452" y2="63.701385"><stop offset="0" stop-color="#71381B"/><stop offset="1" stop-color="#AE5C24"/></linearGradient></defs><path fill="url(#gradient_6)" transform="scale(1.01077 1.01077)" d="M288.485 30.675C291.681 30.5469 323.681 30.5147 325 30.9619L325 117.195C323.267 118.093 303.173 117.782 299.592 117.775L262.237 117.697L180.612 117.676C182.128 117.306 194.034 117.432 196.218 117.433C198.571 116.519 208.055 118.021 209.083 116.37C208.502 115.528 204.656 112.299 203.511 111.234L190.488 99.1818C186.937 95.9159 182.245 92.2702 179.68 88.3028C177.53 84.9769 174.55 86.3459 171.329 85.8916L174.377 85.5316L189.985 85.4663L189.933 53.5214C189.901 46.1699 189.773 38.0443 190.088 30.7272L244.041 30.7444C258.663 30.7519 273.933 30.4856 288.485 30.675Z"/><path fill="#F1A838" transform="scale(1.01077 1.01077)" d="M190.088 30.7272L244.041 30.7444C243.852 46.549 244.112 62.3449 244.23 78.1473C244.247 80.4249 244.175 82.7221 243.946 84.9908C243.566 85.2614 243.545 85.3071 243.109 85.4523C227.687 85.8488 210.841 85.4865 195.288 85.5286C193.629 85.4564 191.668 85.484 189.985 85.4663L189.933 53.5214C189.901 46.1699 189.773 38.0443 190.088 30.7272Z"/><path fill="#CA6D2C" transform="scale(1.01077 1.01077)" d="M244.041 30.7444C258.663 30.7519 273.933 30.4856 288.485 30.675L288.482 67.5985C288.482 71.2946 288.247 82.2376 288.665 85.497L243.109 85.4523C243.545 85.3071 243.566 85.2614 243.946 84.9908C244.175 82.7221 244.247 80.4249 244.23 78.1473C244.112 62.3449 243.852 46.549 244.041 30.7444Z"/><path fill="#CA6D2C" transform="scale(1.01077 1.01077)" d="M189.985 85.4663C191.668 85.484 193.629 85.4564 195.288 85.5286C192.396 85.8847 186.45 86.1849 183.539 86.1225C185.354 88.5747 187.425 90.6431 189.581 92.7854C196.154 99.3149 203.044 105.522 209.785 111.876C211.948 113.915 213.832 113.929 214.774 116.866C215.688 117.636 228.715 116.631 229.696 117.352C219.044 117.465 206.789 117.702 196.218 117.433C198.571 116.519 208.055 118.021 209.083 116.37C208.502 115.528 204.656 112.299 203.511 111.234L190.488 99.1818C186.937 95.9159 182.245 92.2702 179.68 88.3028C177.53 84.9769 174.55 86.3459 171.329 85.8916L174.377 85.5316L189.985 85.4663Z"/><defs><linearGradient id="gradient_7" gradientUnits="userSpaceOnUse" x1="104.91439" y1="23.10462" x2="119.88477" y2="149.98051"><stop offset="0" stop-color="#FFD13B"/><stop offset="1" stop-color="#FEF375"/></linearGradient></defs><path fill="url(#gradient_7)" transform="scale(1.01077 1.01077)" d="M36.48 30.7501C87.6824 30.4813 138.886 30.4737 190.088 30.7272C189.773 38.0443 189.901 46.1699 189.933 53.5214L189.985 85.4663L174.377 85.5316C169.596 85.4904 164.814 85.4765 160.032 85.4899C161.136 83.33 160.399 77.5027 160.535 74.6147C158.251 73.0252 154.446 72.15 151.686 71.6088C140.663 68.1543 121.771 68.4651 110.258 70.9037C105.823 71.8431 99.6488 74.1295 95.2414 75.546C91.0135 76.9048 85.5347 78.4462 81.7072 80.5554C77.2271 83.0244 72.452 86.2973 68.1936 89.1719L68.3291 89.4796C67.7983 92.511 67.9288 104.914 67.9887 108.534C68.0903 114.677 67.6291 123.118 68.0123 128.984C67.8282 132.443 67.3714 154.791 68.025 156.787L67.9864 156.922C66.571 156.589 61.3393 156.752 59.6477 156.711C51.9643 156.525 44.1585 156.999 36.5154 157.013L36.4934 84.6912L36.48 30.7501Z"/><path fill="#FCED5E" transform="scale(1.01077 1.01077)" d="M68.1414 58.7482C99.0884 58.9968 130.037 58.9705 160.984 58.6694C160.99 61.5671 161.279 72.6108 160.535 74.6147C158.251 73.0252 154.446 72.15 151.686 71.6088C140.663 68.1543 121.771 68.4651 110.258 70.9037C105.823 71.8431 99.6488 74.1295 95.2414 75.546C91.0135 76.9048 85.5347 78.4462 81.7072 80.5554C77.2271 83.0244 72.452 86.2973 68.1936 89.1719C67.4828 86.4091 67.9864 62.4297 68.1414 58.7482Z"/><path fill="#F1A838" transform="scale(1.01077 1.01077)" d="M36.4932 184.271C40.3155 184.298 44.2813 184.054 48.1312 184.007C54.7542 183.9 61.3788 183.986 67.9968 184.265L68.1511 184.212C71.3171 183.918 78.4733 184.076 81.8395 184.07C85.9404 184.063 93.2065 183.788 97.111 184.117C97.7982 184.21 98.6797 184.367 99.354 184.331C99.4325 193.907 98.9306 202.974 99.002 212.38C104.886 212.48 111.127 212.155 117.107 212.175C121.513 212.19 126.244 212.545 130.507 212.502L130.495 217.378L130.775 218.012L130.464 260.959C130.224 263.158 130.269 265.535 130.26 267.762L67.7709 267.754C67.7208 263.506 68.4373 242.307 67.604 239.838L66.5576 239.618C56.881 240.766 46.1718 239.467 36.5157 239.818C36.3781 228.042 36.577 216.04 36.4748 204.169C36.8176 202.057 36.5618 198.073 36.5226 195.795C36.4879 191.953 36.4781 188.112 36.4932 184.271Z"/><defs><linearGradient id="gradient_8" gradientUnits="userSpaceOnUse" x1="31.20779" y1="233.37029" x2="73.163803" y2="190.25476"><stop offset="0" stop-color="#F29F35"/><stop offset="1" stop-color="#FCD650"/></linearGradient></defs><path fill="url(#gradient_8)" transform="scale(1.01077 1.01077)" d="M36.4932 184.271C40.3155 184.298 44.2813 184.054 48.1312 184.007C54.7542 183.9 61.3788 183.986 67.9968 184.265C67.8541 197.057 67.8672 209.85 68.0361 222.642L67.9951 239.579C67.2584 239.498 67.1201 239.356 66.5576 239.618C56.881 240.766 46.1718 239.467 36.5157 239.818C36.3781 228.042 36.577 216.04 36.4748 204.169C36.8176 202.057 36.5618 198.073 36.5226 195.795C36.4879 191.953 36.4781 188.112 36.4932 184.271Z"/><defs><linearGradient id="gradient_9" gradientUnits="userSpaceOnUse" x1="74.916046" y1="223.4872" x2="96.008766" y2="183.31084"><stop offset="0" stop-color="#B25C1E"/><stop offset="1" stop-color="#F49038"/></linearGradient></defs><path fill="url(#gradient_9)" transform="scale(1.01077 1.01077)" d="M68.1511 184.212C71.3171 183.918 78.4733 184.076 81.8395 184.07C85.9404 184.063 93.2065 183.788 97.111 184.117C97.7982 184.21 98.6797 184.367 99.354 184.331C99.4325 193.907 98.9306 202.974 99.002 212.38C99.0773 219.124 99.3064 225.856 99.2184 232.594L99.2919 234.867C99.2877 236.531 99.2744 238.175 99.337 239.839C94.832 239.725 70.345 240.476 67.9951 239.579L68.0361 222.642C67.8672 209.85 67.8541 197.057 67.9968 184.265L68.1511 184.212Z"/><defs><linearGradient id="gradient_10" gradientUnits="userSpaceOnUse" x1="78.909462" y1="242.91032" x2="85.109779" y2="225.2775"><stop offset="0" stop-color="#8F481D"/><stop offset="1" stop-color="#AD5D24"/></linearGradient></defs><path fill="url(#gradient_10)" transform="scale(1.01077 1.01077)" d="M68.0361 222.642L68.5786 220.194C70.7458 220.715 76.9286 222.268 78.606 223.023C86.7894 226.707 89.4798 229.743 98.877 230.078L99.2184 232.594L99.2919 234.867C99.2877 236.531 99.2744 238.175 99.337 239.839C94.832 239.725 70.345 240.476 67.9951 239.579L68.0361 222.642Z"/><path fill="#FCED5E" transform="scale(1.01077 1.01077)" d="M99.002 212.38C104.886 212.48 111.127 212.155 117.107 212.175C121.513 212.19 126.244 212.545 130.507 212.502L130.495 217.378C130.538 224.513 130.37 232.75 130.625 239.783C120.352 238.996 109.784 239.719 99.5357 239.752C99.5139 238.355 99.5513 236.175 99.2919 234.867L99.2184 232.594C99.3064 225.856 99.0773 219.124 99.002 212.38Z"/><path fill="#CA6D2C" transform="scale(1.01077 1.01077)" d="M36.5157 239.818C46.1718 239.467 56.881 240.766 66.5576 239.618L67.604 239.838C68.4373 242.307 67.7208 263.506 67.7709 267.754L130.26 267.762C130.269 265.535 130.224 263.158 130.464 260.959C130.681 263.92 130.427 267.885 130.51 270.951C130.729 279.046 130.311 287.486 130.406 295.515C99.4202 295.011 67.8355 295.907 36.7687 295.287L36.5157 239.818Z"/><defs><linearGradient id="gradient_11" gradientUnits="userSpaceOnUse" x1="9.6885319" y1="145.09032" x2="67.012161" y2="144.05692"><stop offset="0" stop-color="#9A4E1E"/><stop offset="1" stop-color="#E4812E"/></linearGradient></defs><path fill="url(#gradient_11)" transform="scale(1.01077 1.01077)" d="M36.4748 204.169C33.2111 203.513 32.2186 197.76 30.5142 195.79C23.8382 188.072 18.6471 181.908 15.3898 171.995C13.4842 166.196 11.0157 160.205 10.1471 153.896C7.30326 133.24 12.1005 109.523 26.6911 93.9628C29.2294 91.2574 31.3886 87.9732 34.5729 85.9979C35.6327 85.3405 35.7921 85.7536 36.4934 84.6912L36.5154 157.013C44.1585 156.999 51.9643 156.525 59.6477 156.711C61.3393 156.752 66.571 156.589 67.9864 156.922C67.9672 160.119 67.651 182.832 68.1511 184.212L67.9968 184.265C61.3788 183.986 54.7542 183.9 48.1312 184.007C44.2813 184.054 40.3155 184.298 36.4932 184.271C36.4781 188.112 36.4879 191.953 36.5226 195.795C36.5618 198.073 36.8176 202.057 36.4748 204.169Z"/><defs><linearGradient id="gradient_12" gradientUnits="userSpaceOnUse" x1="226.5795" y1="196.87964" x2="183.41254" y2="168.76645"><stop offset="0" stop-color="#FFC041"/><stop offset="1" stop-color="#FCEC67"/></linearGradient></defs><path fill="url(#gradient_12)" transform="scale(1.01077 1.01077)" d="M203.731 156.539C209.218 156.472 214.705 156.457 220.191 156.494L220.237 189.916C220.236 195.42 220.481 203.248 220.126 208.52C211.606 208.487 203.288 208.644 194.781 208.735C182.711 208.863 170.462 208.541 158.399 208.708L158.455 208.536C160.644 208.277 166.198 208.421 168.722 208.424L189.077 208.478C190.37 199.78 189.976 193.758 189.992 185.003L190.03 156.906C192.756 156.361 201.257 157.301 203.731 156.539Z"/></svg>